<svg width="128" height="128" viewBox="0 0 128 128" fill="none" xmlns="http://www.w3.org/2000/svg">
<rect width="128" height="128" fill="black"/>
<path d="M29.3496 61.2148C28.6367 61.2148 28.0996 60.668 28.0996 59.8965V48.4316C28.0996 47.3281 28.7734 46.7129 29.6914 46.7129C30.5508 46.7129 30.9609 47.1328 31.4395 48.0215L35.5801 55.873L39.7207 48.0215C40.2188 47.1035 40.6387 46.7129 41.4785 46.7129C42.3965 46.7129 43.0703 47.3281 43.0703 48.4316V59.8965C43.0703 60.668 42.5332 61.2148 41.8105 61.2148C41.0879 61.2148 40.5605 60.6484 40.5605 59.8965V51.3125L37.2305 57.709C36.6836 58.7246 36.332 59.1445 35.5801 59.1445C34.8281 59.1445 34.4668 58.7246 33.9297 57.709L30.6094 51.3125V59.8965C30.6094 60.6484 30.0723 61.2148 29.3496 61.2148ZM49.3391 61.2148C48.5871 61.2148 48.0793 60.6875 48.0793 59.9258V48.002C48.0793 47.2402 48.5871 46.7129 49.3391 46.7129C50.1008 46.7129 50.6086 47.2402 50.6086 48.002V59.9258C50.6086 60.6875 50.1008 61.2148 49.3391 61.2148ZM56.8773 61.2148C56.1156 61.2148 55.6176 60.6875 55.6176 59.9355V48.3535C55.6176 47.3672 56.223 46.7227 57.1508 46.7227C57.8148 46.7227 58.225 47.0059 58.8891 47.9434L65.0707 56.957V48.002C65.0707 47.25 65.5883 46.7227 66.3305 46.7227C67.0824 46.7227 67.6 47.25 67.6 48.002V59.5742C67.6 60.5605 66.975 61.2148 66.0961 61.2148C65.4418 61.2148 64.9633 60.9023 64.3676 60.0723L58.1371 51.127V59.9355C58.1371 60.6875 57.6293 61.2148 56.8773 61.2148ZM73.8785 61.2148C73.1266 61.2148 72.609 60.6875 72.609 59.9258V48.002C72.609 47.2402 73.1266 46.7129 73.8785 46.7129C74.6305 46.7129 75.148 47.2402 75.148 48.002V53.5098L82.0035 47.2012C82.3063 46.9277 82.609 46.7617 83.0777 46.7617C83.6344 46.7617 84.152 47.25 84.152 47.7773C84.152 48.2363 83.9957 48.5879 83.4879 49.0469L79.1813 52.9824L84.0055 59.0371C84.4059 59.5449 84.5426 59.8086 84.5426 60.1699C84.5426 60.7461 83.9664 61.2148 83.3121 61.2148C82.9215 61.2148 82.443 61.0293 82.1402 60.6387L77.3746 54.6328L75.148 56.6641V59.9258C75.148 60.6875 74.6305 61.2148 73.8785 61.2148ZM88.0086 61.2539C87.3543 61.2539 86.7977 60.7168 86.7977 60.0625C86.7977 59.8574 86.8465 59.5547 86.9734 59.2324L91.3191 48.627C91.866 47.2793 92.5105 46.6445 93.741 46.6445C94.9715 46.6445 95.616 47.2793 96.1629 48.627L100.509 59.2324C100.645 59.5547 100.694 59.8574 100.694 60.0625C100.694 60.7168 100.128 61.2539 99.4832 61.2539C98.8484 61.2539 98.4285 60.9609 98.2332 60.4434L97.1688 57.7383H90.323L89.2586 60.4434C89.0535 60.9609 88.6434 61.2539 88.0086 61.2539ZM91.2703 55.3359H96.2215L93.7508 49.0566L91.2703 55.3359Z" fill="#D1D2D3"/>
<path d="M38.7148 81.2148C37.9629 81.2148 37.4551 80.6875 37.4551 79.9258V75.1113H30.6289V79.9258C30.6289 80.6875 30.1211 81.2148 29.3594 81.2148C28.6074 81.2148 28.0996 80.6875 28.0996 79.9258V68.002C28.0996 67.2402 28.6074 66.7129 29.3594 66.7129C30.1211 66.7129 30.6289 67.2402 30.6289 68.002V72.709H37.4551V68.002C37.4551 67.2402 37.9629 66.7129 38.7148 66.7129C39.4668 66.7129 39.9746 67.2402 39.9746 68.002V79.9258C39.9746 80.6875 39.4668 81.2148 38.7148 81.2148ZM44.5539 81.2539C43.8996 81.2539 43.343 80.7168 43.343 80.0625C43.343 79.8574 43.3918 79.5547 43.5187 79.2324L47.8645 68.627C48.4113 67.2793 49.0559 66.6445 50.2863 66.6445C51.5168 66.6445 52.1613 67.2793 52.7082 68.627L57.0539 79.2324C57.1906 79.5547 57.2395 79.8574 57.2395 80.0625C57.2395 80.7168 56.673 81.2539 56.0285 81.2539C55.3937 81.2539 54.9738 80.9609 54.7785 80.4434L53.7141 77.7383H46.8684L45.8039 80.4434C45.5988 80.9609 45.1887 81.2539 44.5539 81.2539ZM47.8156 75.3359H52.7668L50.2961 69.0566L47.8156 75.3359ZM65.9594 81.293C62.4047 81.293 60.1195 78.9688 60.1195 75.5215V68.002C60.1195 67.25 60.6469 66.7129 61.3988 66.7129C62.1508 66.7129 62.6488 67.25 62.6488 68.002V75.2676C62.6488 77.3477 63.9281 78.7539 65.9594 78.7539C68.0102 78.7539 69.2797 77.3477 69.2797 75.2676V68.002C69.2797 67.25 69.7875 66.7129 70.5297 66.7129C71.2816 66.7129 71.809 67.25 71.809 68.002V75.5215C71.809 78.9688 69.5238 81.293 65.9594 81.293ZM81.7105 81.293C79.6305 81.293 78.2535 80.8047 77.15 80.0039C76.3102 79.3789 75.7438 78.4414 75.7438 77.6113C75.7438 76.918 76.2516 76.3711 76.9352 76.3711C77.277 76.3711 77.5992 76.5371 77.8629 76.8496C78.8004 78.1973 79.9137 78.9004 81.8668 78.9004C83.4684 78.9004 84.4059 78.2363 84.4059 77.1133C84.4059 76.0391 83.6246 75.5801 82.5602 75.3555L79.9918 74.8281C77.6188 74.3398 76.1637 73.2656 76.1637 70.873C76.1637 68.2949 78.2633 66.6445 81.4664 66.6445C83.2633 66.6445 84.6305 67.2109 85.5875 67.8359C86.4957 68.4121 87.0133 69.3398 87.0133 70.1309C87.0133 70.8242 86.6031 71.3613 85.9098 71.3613C85.441 71.3613 85.0797 71.1367 84.7086 70.7852C84.0348 69.75 82.9605 69.0176 81.2613 69.0176C79.8063 69.0176 78.8199 69.6035 78.8199 70.668C78.8199 71.8008 79.6109 72.1133 80.8707 72.3867L83.3316 72.9434C85.3238 73.3926 87.0328 74.2617 87.0328 76.8984C87.0328 79.6133 84.9137 81.293 81.7105 81.293Z" fill="#9B9B9B"/>
</svg>
