<svg width="128" height="128" viewBox="0 0 128 128" fill="none" xmlns="http://www.w3.org/2000/svg">
<rect width="128" height="128" fill="black"/>
<path d="M25.6846 61.2363C24.9004 61.2363 24.3096 60.6348 24.3096 59.7861V47.1748C24.3096 45.9609 25.0508 45.2842 26.0605 45.2842C27.0059 45.2842 27.457 45.7461 27.9834 46.7236L32.5381 55.3604L37.0928 46.7236C37.6406 45.7139 38.1025 45.2842 39.0264 45.2842C40.0361 45.2842 40.7773 45.9609 40.7773 47.1748V59.7861C40.7773 60.6348 40.1865 61.2363 39.3916 61.2363C38.5967 61.2363 38.0166 60.6133 38.0166 59.7861V50.3438L34.3535 57.3799C33.752 58.4971 33.3652 58.959 32.5381 58.959C31.7109 58.959 31.3135 58.4971 30.7227 57.3799L27.0703 50.3438V59.7861C27.0703 60.6133 26.4795 61.2363 25.6846 61.2363ZM47.673 61.2363C46.8458 61.2363 46.2872 60.6562 46.2872 59.8184V46.7021C46.2872 45.8643 46.8458 45.2842 47.673 45.2842C48.5109 45.2842 49.0695 45.8643 49.0695 46.7021V59.8184C49.0695 60.6562 48.5109 61.2363 47.673 61.2363ZM55.9651 61.2363C55.1272 61.2363 54.5793 60.6562 54.5793 59.8291V47.0889C54.5793 46.0039 55.2454 45.2949 56.2659 45.2949C56.9963 45.2949 57.4475 45.6064 58.178 46.6377L64.9778 56.5527V46.7021C64.9778 45.875 65.5471 45.2949 66.3635 45.2949C67.1907 45.2949 67.76 45.875 67.76 46.7021V59.4316C67.76 60.5166 67.0725 61.2363 66.1057 61.2363C65.386 61.2363 64.8596 60.8926 64.2043 59.9795L57.3508 50.1396V59.8291C57.3508 60.6562 56.7922 61.2363 55.9651 61.2363ZM74.6664 61.2363C73.8392 61.2363 73.2699 60.6562 73.2699 59.8184V46.7021C73.2699 45.8643 73.8392 45.2842 74.6664 45.2842C75.4935 45.2842 76.0629 45.8643 76.0629 46.7021V52.7607L83.6039 45.8213C83.9369 45.5205 84.2699 45.3379 84.7855 45.3379C85.3978 45.3379 85.9671 45.875 85.9671 46.4551C85.9671 46.96 85.7953 47.3467 85.2367 47.8516L80.4994 52.1807L85.806 58.8408C86.2464 59.3994 86.3968 59.6895 86.3968 60.0869C86.3968 60.7207 85.763 61.2363 85.0433 61.2363C84.6136 61.2363 84.0873 61.0322 83.7543 60.6025L78.5121 53.9961L76.0629 56.2305V59.8184C76.0629 60.6562 75.4935 61.2363 74.6664 61.2363ZM90.2094 61.2793C89.4897 61.2793 88.8774 60.6885 88.8774 59.9688C88.8774 59.7432 88.9311 59.4102 89.0708 59.0557L93.8511 47.3896C94.4526 45.9072 95.1616 45.209 96.5151 45.209C97.8686 45.209 98.5776 45.9072 99.1792 47.3896L103.959 59.0557C104.11 59.4102 104.164 59.7432 104.164 59.9688C104.164 60.6885 103.541 61.2793 102.832 61.2793C102.133 61.2793 101.671 60.957 101.457 60.3877L100.286 57.4121H92.7553L91.5844 60.3877C91.3589 60.957 90.9077 61.2793 90.2094 61.2793ZM93.7973 54.7695H99.2436L96.5259 47.8623L93.7973 54.7695Z" fill="#D1D2D3"/>
<path d="M35.9863 83.2363C35.1592 83.2363 34.6006 82.6562 34.6006 81.8184V76.5225H27.0918V81.8184C27.0918 82.6562 26.5332 83.2363 25.6953 83.2363C24.8682 83.2363 24.3096 82.6562 24.3096 81.8184V68.7021C24.3096 67.8643 24.8682 67.2842 25.6953 67.2842C26.5332 67.2842 27.0918 67.8643 27.0918 68.7021V73.8799H34.6006V68.7021C34.6006 67.8643 35.1592 67.2842 35.9863 67.2842C36.8135 67.2842 37.3721 67.8643 37.3721 68.7021V81.8184C37.3721 82.6562 36.8135 83.2363 35.9863 83.2363ZM42.4093 83.2793C41.6896 83.2793 41.0773 82.6885 41.0773 81.9688C41.0773 81.7432 41.131 81.4102 41.2706 81.0557L46.0509 69.3896C46.6525 67.9072 47.3614 67.209 48.715 67.209C50.0685 67.209 50.7775 67.9072 51.379 69.3896L56.1593 81.0557C56.3097 81.4102 56.3634 81.7432 56.3634 81.9688C56.3634 82.6885 55.7404 83.2793 55.0314 83.2793C54.3331 83.2793 53.8712 82.957 53.6564 82.3877L52.4855 79.4121H44.9552L43.7843 82.3877C43.5587 82.957 43.1075 83.2793 42.4093 83.2793ZM45.9972 76.7695H51.4435L48.7257 69.8623L45.9972 76.7695ZM65.9553 83.3223C62.0452 83.3223 59.5315 80.7656 59.5315 76.9736V68.7021C59.5315 67.875 60.1116 67.2842 60.9387 67.2842C61.7659 67.2842 62.3137 67.875 62.3137 68.7021V76.6943C62.3137 78.9824 63.7209 80.5293 65.9553 80.5293C68.2112 80.5293 69.6077 78.9824 69.6077 76.6943V68.7021C69.6077 67.875 70.1662 67.2842 70.9827 67.2842C71.8098 67.2842 72.3899 67.875 72.3899 68.7021V76.9736C72.3899 80.7656 69.8762 83.3223 65.9553 83.3223ZM83.2816 83.3223C80.9935 83.3223 79.4789 82.7852 78.265 81.9043C77.3412 81.2168 76.7181 80.1855 76.7181 79.2725C76.7181 78.5098 77.2767 77.9082 78.0287 77.9082C78.4046 77.9082 78.7591 78.0908 79.0492 78.4346C80.0804 79.917 81.305 80.6904 83.4535 80.6904C85.2152 80.6904 86.2464 79.96 86.2464 78.7246C86.2464 77.543 85.3871 77.0381 84.2162 76.791L81.391 76.2109C78.7806 75.6738 77.18 74.4922 77.18 71.8604C77.18 69.0244 79.4896 67.209 83.013 67.209C84.9896 67.209 86.4935 67.832 87.5462 68.5195C88.5453 69.1533 89.1146 70.1738 89.1146 71.0439C89.1146 71.8066 88.6634 72.3975 87.9007 72.3975C87.3851 72.3975 86.9877 72.1504 86.5795 71.7637C85.8382 70.625 84.6566 69.8193 82.7875 69.8193C81.1869 69.8193 80.1019 70.4639 80.1019 71.6348C80.1019 72.8809 80.972 73.2246 82.3578 73.5254L85.0648 74.1377C87.2562 74.6318 89.1361 75.5879 89.1361 78.4883C89.1361 81.4746 86.805 83.3223 83.2816 83.3223Z" fill="#9B9B9B"/>
</svg>
